<?xml version="1.0" encoding="utf-8"?>
<!-- Generator: Adobe Illustrator 21.0.2, SVG Export Plug-In . SVG Version: 6.00 Build 0)  -->
<svg version="1.1" id="Слой_1" xmlns="http://www.w3.org/2000/svg" xmlns:xlink="http://www.w3.org/1999/xlink" x="0px" y="0px"
	 viewBox="0 0 768 768" style="enable-background:new 0 0 768 768;" xml:space="preserve">
<style type="text/css">
	.st0{stroke:#FFFFFF;stroke-width:9;stroke-miterlimit:10;}
	.st1{stroke:#FFFFFF;stroke-width:11;stroke-miterlimit:10;}
	.st2{fill:none;stroke:#FFFFFF;stroke-width:9;stroke-miterlimit:10;}
</style>
<g>
	<path class="st0" d="M274.5,221.5c-1.3-19.4-5.8-40.3-22.1-52.8c-19.7-15.2-35.5-0.9-55.9-3c-15.6-1.6-64.9-62.3-72.6-13.5
		c-2.6,16.5,12.4,32.7,10.7,51.3c-1.7,18.6-9.4,36.7-15.5,54.1c-9.6,27.4-20.2,54.5-29.9,81.9c-9.4,26.8-28.5,85.6,8.4,101
		c18.4,7.7,38.7-7.2,43-25c5-20.8-13.2-34.6-12.2-54c0.9-18.2,16.2-40.8,34-44.9c22-5,42.9,6.5,66.2-0.1
		C268.7,305.1,276.9,258.9,274.5,221.5z M234.5,245.5c-10.3,47.4-73.8,46.5-57-6.5c4.4-13.8,19.6-51.6,40-47.5
		C237.1,195.4,237.6,231,234.5,245.5z"/>
</g>
<g>
	<path class="st0" d="M324.9,320.6c-23.4-49.8-59.4,7.7-80.9,21.8c-20.2,13.3-87,0.3-66.5,46.2c16.3,36.3,56.1,6.8,80.2,3.9
		c20.7-2.5,32.1,6.6,50-10.2C323.4,367.4,334.8,341.5,324.9,320.6z M291.7,348.3c-3,6.9-8.5,22.1-16.5,25.1
		c-10.9,4.1-15-3.2-12.6-12.8C265.8,347.7,299.8,329.6,291.7,348.3z"/>
</g>
<path class="st0" d="M389.5,352.5c21.4,21.8,52.6-27.9,78.3-22.7c11,2.2,29.1,5.3,35.3,15.9c7.3,12.3,0.4,26.9-9.7,34.6
	c-24.6,18.8-93.6,28-121.2,11.7c-35.9-21.3-15.3-47.3-24.8-79.4c-10.3-34.9-43.2-91.7-27-131c10.4-25.4,76.4-40.3,67.6-4.8
	c-3.3,13.3-16.9,23.5-20.5,37.4c-2.9,11.3-0.4,42.9-0.1,54.4c0.4,14.3,3.6,18.7,6.8,32.8C378.5,319.5,377.8,340.5,389.5,352.5z"/>
<g>
	<path class="st1" d="M500.5,269.5c-1.5-7.2-7.6-12.8-11-19.2c-5.4-10.2-7.9-21.4-13-31.8c-7.2-14.6-7.2-44.2-23.6-50.4
		c-19.6-7.4-36,13-38.4,30.4c-1.3,9.9,2.4,18.4,2.8,28.2c0.5,12.9-4,24-8.8,35.8c-5.6,13.8-16.9,31.7-7.7,46
		c17.2,26.9,27.6-2.4,35.4-14.7c16.3-25.7,20.3,3.5,31.6,12.8C489.4,324.7,504.1,287,500.5,269.5z M457.5,246.5
		c-6.7,21.3-22.7,3.7-19.7-12.1C444.4,198.9,463.4,227.6,457.5,246.5z"/>
</g>
<path class="st0" d="M136.5,476.5c-6.3-19.8,7.1-33.2,25.9-35.4c31.7-3.7,33.9,22.6,35.9,47.2c1.1,14,1.9,33.7,16.4,41.7
	c22.3,12.3,31.9-11.8,30.4-29c-1.6-18.4-9.2-41.9-0.7-59.6c14-29.3,47.8-10.8,48.4,15.7c0.5,20.8-14.3,39.2-12.2,60.3
	c1.8,17.7,18.8,38.6,31.4,17.1c17.6-29.9-28.1-132.8,35.8-127c46,4.2,2.6,80.6-2.3,104c-4.7,22.5-6.2,43.8-2.4,66.2
	c3.4,20.2,10,54.7-17.1,59.5c-24.6,4.4-33.2-15-34.5-35.6c-0.6-9.9,2.5-21.4-7.8-27.3c-8.7-5-24.1,0.9-28.6,9
	c-9.3,16.5,2.2,59.2-33.6,50.3c-23.3-5.8-10.2-45.4-16.8-64.7C192.3,531.7,148.7,514.9,136.5,476.5z"/>
<g>
	<path class="st0" d="M510.5,589.5c-16.3-26.9-37.1-40.8-29.9-75.1c5.2-24.7,7.4-70.2-16.3-86.8c-53-37.2-85.4,41.4-88.3,81.4
		c-2.2,29.6-3.3,58.5,4.3,87.3c3.1,11.6,5.4,28.1,12.7,38.2c6.9,9.7,29,22.9,41.1,19.6c23.4-6.4,7-45.8,0.8-59.7
		c-4.1-9.1-17.3-20-12-31.4c6-13,23.7-7.2,31.9,0.9c8,8,10,20.7,12.6,31.3c3.1,13.2-1.9,31.2,7.5,40.4
		C505.8,666.1,525.5,614.2,510.5,589.5z M451.5,501.5c-5.5,14-26.9,39.3-38,13c-4.9-11.7,5.9-34.4,9.9-45.4
		c4.7-13,19.8-27.1,31.4-10.2C461.3,468.5,455.4,491.7,451.5,501.5z"/>
</g>
<path class="st0" d="M511.5,466.5c-7.2-19.3-31.2-56.5-2.9-65.4c8.8-2.8,25-3.9,31.7,3.4c9.5,10.2,1.1,28.7,1.8,41.1
	c1,18.2,22.7,42.8,37.2,19.3c10.7-17.4-0.9-48.4,11.2-65.4c11.8-16.5,61.2-21.9,58.1,6.1c-1.3,12-12.5,24.5-19.1,33.9
	c-8.8,12.5-12.3,23.8-19.1,36.7c-3.1,5.9-10,10.5-12.2,16.3c-2.3,6.3,1.3,12.1-1.3,18.5c-5.6,13.8-22.8,10.5-25.4,27.4
	c-3.6,23.1,33.4,52.2,3.1,70.8c-33,20.3-45-33.2-53.4-53.7C510.1,528.5,522.5,496,511.5,466.5z"/>
<g>
	<path class="st2" d="M585.5,262.5c0,0.3,1.4,0.2,3.6,0.1C586.8,262.5,585.5,262.4,585.5,262.5z"/>
	<path class="st0" d="M589.1,262.6c1.8,0.1,4.2,0.1,6.9,0C593.3,262.5,590.9,262.6,589.1,262.6z"/>
	<path class="st0" d="M525.9,191.2c0.2,0.2,18-19.9,20.1-22.2C542.3,166,526.7,191.9,525.9,191.2z"/>
	<path class="st0" d="M589.1,262.6c25.7-0.7,48.1-12.5,55.6-38.9c8.7-30.4-12.3-43-37-53.3c-18.1-7.6-42.6-17-60.5-4.1
		c-1.3,0.9-20.1,25.9-21.3,24.9c-0.6-0.5,17.4-21.5,19.1-23.1c-14.8-11.8-32.9-8.1-37.3,11.2c-4.6,20.4,12.5,47.5,19.5,66.5
		c12,32.5,16.6,47,1.6,78c-6,12.5-11.2,27.7-4.3,41.4c8,16,30,18.5,43.1,6.4c13.8-12.6,2.3-74.2,19.4-71.4
		c10.4,1.7,19.2,30.2,22.7,37.2c7.7,15.6,16.4,27.3,33.6,34.1c15.8,6.2,36.7,6.1,49.5-6.5c8.4-8.3,13-29.4,6.6-40
		c-14.4-23.8-36.1,13.7-55-1.1c-9.9-7.8-13-29.2-19-39.9C616,266.9,609.3,263.6,589.1,262.6 M568.5,232.5
		c-29.6-5.6-7.6-45.3,15.1-44C616.5,190.5,598.3,238.1,568.5,232.5z"/>
</g>
</svg>
