<?xml version="1.0" encoding="UTF-8" standalone="no" ?>
<!DOCTYPE svg PUBLIC "-//W3C//DTD SVG 1.1//EN" "http://www.w3.org/Graphics/SVG/1.1/DTD/svg11.dtd">
<svg xmlns="http://www.w3.org/2000/svg" xmlns:xlink="http://www.w3.org/1999/xlink" version="1.1" width="1080" height="1080" viewBox="0 0 1080 1080" xml:space="preserve">
<desc>Created with Fabric.js 5.2.4</desc>
<defs>
</defs>
<g transform="matrix(1 0 0 1 540 540)" id="c25fe58f-12cc-4ae4-b5a4-8208c26fbe3b"  >
<rect style="stroke: none; stroke-width: 0; stroke-dasharray: none; stroke-linecap: butt; stroke-dashoffset: 0; stroke-linejoin: miter; stroke-miterlimit: 4; fill: rgb(255,255,255); fill-rule: nonzero; opacity: 1; visibility: hidden;" vector-effect="non-scaling-stroke"  x="-540" y="-540" rx="0" ry="0" width="1080" height="1080" />
</g>
<g transform="matrix(1 0 0 1 540 540)" id="753f6bf6-1d1f-43a2-bfdb-799bb3db327b"  >
</g>
<g transform="matrix(1.57 0 0 1.57 540 540)"  >
<g style="" vector-effect="non-scaling-stroke"   >
		<g transform="matrix(1 0 0 1 -213.76 -106.02)"  >
<path style="stroke: rgb(255,255,255); stroke-width: 0; stroke-dasharray: none; stroke-linecap: butt; stroke-dashoffset: 0; stroke-linejoin: miter; stroke-miterlimit: 10; fill: rgb(255,255,255); fill-rule: nonzero; opacity: 1;" vector-effect="non-scaling-stroke"  transform=" translate(-175.35, -287.92)" d="M 274.5 221.5 C 273.2 202.1 268.7 181.2 252.4 168.7 C 232.70000000000002 153.5 216.9 167.79999999999998 196.5 165.7 C 180.9 164.1 131.6 103.39999999999999 123.9 152.2 C 121.30000000000001 168.7 136.3 184.89999999999998 134.6 203.5 C 132.9 222.1 125.19999999999999 240.2 119.1 257.6 C 109.5 285 98.89999999999999 312.1 89.19999999999999 339.5 C 79.79999999999998 366.3 60.69999999999999 425.1 97.6 440.5 C 116 448.2 136.3 433.3 140.6 415.5 C 145.6 394.7 127.39999999999999 380.9 128.4 361.5 C 129.3 343.3 144.6 320.7 162.4 316.6 C 184.4 311.6 205.3 323.1 228.60000000000002 316.5 C 268.7 305.1 276.9 258.9 274.5 221.5 z M 234.5 245.5 C 224.2 292.9 160.7 292 177.5 239 C 181.9 225.2 197.1 187.4 217.5 191.5 C 237.1 195.4 237.6 231 234.5 245.5 z" stroke-linecap="round" />
</g>
		<g transform="matrix(1 0 0 1 -137.99 -40.33)"  >
<path style="stroke: rgb(255,255,255); stroke-width: 0; stroke-dasharray: none; stroke-linecap: butt; stroke-dashoffset: 0; stroke-linejoin: miter; stroke-miterlimit: 10; fill: rgb(255,255,255); fill-rule: nonzero; opacity: 1;" vector-effect="non-scaling-stroke"  transform=" translate(-251.12, -353.61)" d="M 324.9 320.6 C 301.5 270.8 265.5 328.3 243.99999999999997 342.40000000000003 C 223.79999999999998 355.70000000000005 156.99999999999997 342.70000000000005 177.49999999999997 388.6 C 193.79999999999998 424.90000000000003 233.59999999999997 395.40000000000003 257.7 392.5 C 278.4 390 289.8 399.1 307.7 382.3 C 323.4 367.4 334.8 341.5 324.9 320.6 z M 291.7 348.3 C 288.7 355.2 283.2 370.40000000000003 275.2 373.40000000000003 C 264.3 377.50000000000006 260.2 370.20000000000005 262.59999999999997 360.6 C 265.8 347.7 299.8 329.6 291.7 348.3 z" stroke-linecap="round" />
</g>
		<g transform="matrix(1 0 0 1 21.95 -115.83)"  >
<path style="stroke: rgb(255,255,255); stroke-width: 0; stroke-dasharray: none; stroke-linecap: butt; stroke-dashoffset: 0; stroke-linejoin: miter; stroke-miterlimit: 10; fill: rgb(255,255,255); fill-rule: nonzero; opacity: 1;" vector-effect="non-scaling-stroke"  transform=" translate(-411.06, -278.11)" d="M 389.5 352.5 C 410.9 374.3 442.1 324.6 467.8 329.8 C 478.8 332 496.90000000000003 335.1 503.1 345.7 C 510.40000000000003 358 503.5 372.59999999999997 493.40000000000003 380.3 C 468.8 399.1 399.80000000000007 408.3 372.20000000000005 392 C 336.30000000000007 370.7 356.90000000000003 344.7 347.40000000000003 312.6 C 337.1 277.70000000000005 304.20000000000005 220.90000000000003 320.40000000000003 181.60000000000002 C 330.8 156.20000000000002 396.80000000000007 141.3 388 176.8 C 384.7 190.10000000000002 371.1 200.3 367.5 214.20000000000002 C 364.6 225.50000000000003 367.1 257.1 367.4 268.6 C 367.79999999999995 282.90000000000003 371 287.3 374.2 301.40000000000003 C 378.5 319.5 377.8 340.5 389.5 352.5 z" stroke-linecap="round" />
</g>
		<g transform="matrix(1 0 0 1 60.07 -150.91)"  >
<path style="stroke: rgb(255,255,255); stroke-width: 0; stroke-dasharray: none; stroke-linecap: butt; stroke-dashoffset: 0; stroke-linejoin: miter; stroke-miterlimit: 10; fill: rgb(255,255,255); fill-rule: nonzero; opacity: 1;" vector-effect="non-scaling-stroke"  transform=" translate(-449.18, -243.03)" d="M 500.5 269.5 C 499 262.3 492.9 256.7 489.5 250.3 C 484.1 240.10000000000002 481.6 228.9 476.5 218.5 C 469.3 203.9 469.3 174.3 452.9 168.1 C 433.29999999999995 160.7 416.9 181.1 414.5 198.5 C 413.2 208.4 416.9 216.9 417.3 226.7 C 417.8 239.6 413.3 250.7 408.5 262.5 C 402.9 276.3 391.6 294.2 400.8 308.5 C 418 335.4 428.40000000000003 306.1 436.2 293.8 C 452.5 268.1 456.5 297.3 467.8 306.6 C 489.4 324.7 504.1 287 500.5 269.5 z M 457.5 246.5 C 450.8 267.8 434.8 250.2 437.8 234.4 C 444.4 198.9 463.4 227.6 457.5 246.5 z" stroke-linecap="round" />
</g>
		<g transform="matrix(1 0 0 1 -137.28 128.61)"  >
<path style="stroke: rgb(255,255,255); stroke-width: 0; stroke-dasharray: none; stroke-linecap: butt; stroke-dashoffset: 0; stroke-linejoin: miter; stroke-miterlimit: 10; fill: rgb(255,255,255); fill-rule: nonzero; opacity: 1;" vector-effect="non-scaling-stroke"  transform=" translate(-251.83, -522.55)" d="M 136.5 476.5 C 130.2 456.7 143.6 443.3 162.4 441.1 C 194.1 437.40000000000003 196.3 463.70000000000005 198.3 488.3 C 199.4 502.3 200.20000000000002 522 214.70000000000002 530 C 237.00000000000003 542.3 246.60000000000002 518.2 245.10000000000002 501 C 243.50000000000003 482.6 235.90000000000003 459.1 244.40000000000003 441.4 C 258.40000000000003 412.09999999999997 292.20000000000005 430.59999999999997 292.8 457.09999999999997 C 293.3 477.9 278.5 496.29999999999995 280.6 517.4 C 282.40000000000003 535.1 299.40000000000003 556 312 534.5 C 329.6 504.6 283.9 401.7 347.8 407.5 C 393.8 411.7 350.40000000000003 488.1 345.5 511.5 C 340.8 534 339.3 555.3 343.1 577.7 C 346.5 597.9000000000001 353.1 632.4000000000001 326 637.2 C 301.4 641.6 292.8 622.2 291.5 601.6 C 290.9 591.7 294 580.2 283.7 574.3000000000001 C 275 569.3000000000001 259.59999999999997 575.2 255.1 583.3000000000001 C 245.79999999999998 599.8000000000001 257.3 642.5000000000001 221.5 633.6 C 198.2 627.8000000000001 211.3 588.2 204.7 568.9 C 192.3 531.7 148.7 514.9 136.5 476.5 z" stroke-linecap="round" />
</g>
		<g transform="matrix(1 0 0 1 55.89 142.3)"  >
<path style="stroke: rgb(255,255,255); stroke-width: 0; stroke-dasharray: none; stroke-linecap: butt; stroke-dashoffset: 0; stroke-linejoin: miter; stroke-miterlimit: 10; fill: rgb(255,255,255); fill-rule: nonzero; opacity: 1;" vector-effect="non-scaling-stroke"  transform=" translate(-445, -536.24)" d="M 510.5 589.5 C 494.2 562.6 473.4 548.7 480.6 514.4 C 485.8 489.7 488 444.2 464.3 427.59999999999997 C 411.3 390.4 378.9 468.99999999999994 376 509 C 373.8 538.6 372.7 567.5 380.3 596.3 C 383.40000000000003 607.9 385.7 624.4 393 634.5 C 399.9 644.2 422 657.4 434.1 654.1 C 457.5 647.7 441.1 608.3000000000001 434.90000000000003 594.4 C 430.8 585.3 417.6 574.4 422.90000000000003 563 C 428.90000000000003 550 446.6 555.8 454.8 563.9 C 462.8 571.9 464.8 584.6 467.40000000000003 595.1999999999999 C 470.50000000000006 608.4 465.50000000000006 626.4 474.90000000000003 635.5999999999999 C 505.8 666.1 525.5 614.2 510.5 589.5 z M 451.5 501.5 C 446 515.5 424.6 540.8 413.5 514.5 C 408.6 502.8 419.4 480.1 423.4 469.1 C 428.09999999999997 456.1 443.2 442 454.79999999999995 458.90000000000003 C 461.3 468.5 455.4 491.7 451.5 501.5 z" stroke-linecap="round" />
</g>
		<g transform="matrix(1 0 0 1 182.83 105.85)"  >
<path style="stroke: rgb(255,255,255); stroke-width: 0; stroke-dasharray: none; stroke-linecap: butt; stroke-dashoffset: 0; stroke-linejoin: miter; stroke-miterlimit: 10; fill: rgb(255,255,255); fill-rule: nonzero; opacity: 1;" vector-effect="non-scaling-stroke"  transform=" translate(-571.94, -499.79)" d="M 511.5 466.5 C 504.3 447.2 480.3 410 508.6 401.1 C 517.4 398.3 533.6 397.20000000000005 540.3000000000001 404.5 C 549.8000000000001 414.7 541.4000000000001 433.2 542.1 445.6 C 543.1 463.8 564.8000000000001 488.40000000000003 579.3000000000001 464.90000000000003 C 590.0000000000001 447.50000000000006 578.4000000000001 416.50000000000006 590.5000000000001 399.5 C 602.3000000000001 383 651.7000000000002 377.6 648.6000000000001 405.6 C 647.3000000000002 417.6 636.1000000000001 430.1 629.5000000000001 439.5 C 620.7000000000002 452 617.2000000000002 463.3 610.4000000000001 476.2 C 607.3000000000001 482.09999999999997 600.4000000000001 486.7 598.2 492.5 C 595.9000000000001 498.8 599.5 504.6 596.9000000000001 511 C 591.3000000000001 524.8 574.1000000000001 521.5 571.5000000000001 538.4 C 567.9000000000001 561.5 604.9000000000001 590.6 574.6000000000001 609.1999999999999 C 541.6000000000001 629.4999999999999 529.6000000000001 575.9999999999999 521.2000000000002 555.4999999999999 C 510.1 528.5 522.5 496 511.5 466.5 z" stroke-linecap="round" />
</g>
		<g transform="matrix(1 0 0 1 198.19 -131.36)"  >
<path style="stroke: rgb(255,255,255); stroke-width: 0; stroke-dasharray: none; stroke-linecap: butt; stroke-dashoffset: 0; stroke-linejoin: miter; stroke-miterlimit: 10; fill: rgb(255,255,255); fill-rule: nonzero; opacity: 1;" vector-effect="non-scaling-stroke"  transform=" translate(-587.3, -262.58)" d="M 585.5 262.5 C 585.5 262.8 586.9 262.7 589.1 262.6 C 586.8 262.5 585.5 262.4 585.5 262.5 z" stroke-linecap="round" />
</g>
		<g transform="matrix(1 0 0 1 203.44 -131.32)"  >
<path style="stroke: rgb(255,255,255); stroke-width: 0; stroke-dasharray: none; stroke-linecap: butt; stroke-dashoffset: 0; stroke-linejoin: miter; stroke-miterlimit: 10; fill: rgb(255,255,255); fill-rule: nonzero; opacity: 1;" vector-effect="non-scaling-stroke"  transform=" translate(-592.55, -262.62)" d="M 589.1 262.6 C 590.9 262.70000000000005 593.3000000000001 262.70000000000005 596 262.6 C 593.3 262.5 590.9 262.6 589.1 262.6 z" stroke-linecap="round" />
</g>
		<g transform="matrix(1 0 0 1 146.84 -213.95)"  >
<path style="stroke: rgb(255,255,255); stroke-width: 9; stroke-dasharray: none; stroke-linecap: butt; stroke-dashoffset: 0; stroke-linejoin: miter; stroke-miterlimit: 10; fill: rgb(255,255,255); fill-rule: nonzero; opacity: 1;" vector-effect="non-scaling-stroke"  transform=" translate(-535.95, -179.99)" d="M 525.9 191.2 C 526.1 191.39999999999998 543.9 171.29999999999998 546 169 C 542.3 166 526.7 191.9 525.9 191.2 z" stroke-linecap="round" />
</g>
		<g transform="matrix(1 0 0 1 215.55 -124.38)"  >
<path style="stroke: rgb(255,255,255); stroke-width: 0; stroke-dasharray: none; stroke-linecap: butt; stroke-dashoffset: 0; stroke-linejoin: miter; stroke-miterlimit: 10; fill: rgb(255,255,255); fill-rule: nonzero; opacity: 1;" vector-effect="non-scaling-stroke"  transform=" translate(-604.66, -269.56)" d="M 589.1 262.6 C 614.8000000000001 261.90000000000003 637.2 250.10000000000002 644.7 223.70000000000002 C 653.4000000000001 193.3 632.4000000000001 180.70000000000002 607.7 170.40000000000003 C 589.6 162.80000000000004 565.1 153.40000000000003 547.2 166.30000000000004 C 545.9000000000001 167.20000000000005 527.1 192.20000000000005 525.9000000000001 191.20000000000005 C 525.3000000000001 190.70000000000005 543.3000000000001 169.70000000000005 545.0000000000001 168.10000000000005 C 530.2000000000002 156.30000000000004 512.1000000000001 160.00000000000006 507.7000000000001 179.30000000000004 C 503.1000000000001 199.70000000000005 520.2 226.80000000000004 527.2 245.80000000000004 C 539.2 278.30000000000007 543.8000000000001 292.80000000000007 528.8000000000001 323.80000000000007 C 522.8000000000001 336.30000000000007 517.6 351.50000000000006 524.5000000000001 365.20000000000005 C 532.5000000000001 381.20000000000005 554.5000000000001 383.70000000000005 567.6000000000001 371.6 C 581.4000000000001 359 569.9000000000001 297.40000000000003 587.0000000000001 300.20000000000005 C 597.4000000000001 301.90000000000003 606.2000000000002 330.40000000000003 609.7000000000002 337.40000000000003 C 617.4000000000002 353.00000000000006 626.1000000000001 364.70000000000005 643.3000000000002 371.50000000000006 C 659.1000000000001 377.70000000000005 680.0000000000002 377.6000000000001 692.8000000000002 365.00000000000006 C 701.2000000000002 356.70000000000005 705.8000000000002 335.6000000000001 699.4000000000002 325.00000000000006 C 685.0000000000002 301.20000000000005 663.3000000000002 338.70000000000005 644.4000000000002 323.90000000000003 C 634.5000000000002 316.1 631.4000000000002 294.70000000000005 625.4000000000002 284.00000000000006 C 616 266.9 609.3 263.6 589.1 262.6 M 568.5 232.5 C 538.9 226.9 560.9 187.2 583.6 188.5 C 616.5 190.5 598.3 238.1 568.5 232.5 z" stroke-linecap="round" />
</g>
</g>
</g>
</svg>